<svg width="64" height="64" viewBox="0 0 3779.5332 3779.5332" xmlns="http://www.w3.org/2000/svg" xmlns:undefined="http://sodipodi.sourceforge.net/DTD/sodipodi-0.dtd" version="1.1">

 <g>
  <title>Layer 1</title>
  <path fill-rule="evenodd" fill="#1d1819" id="path14" d="m2316.0399,936.73333c163.53332,72.74666 267.73332,295.26665 312.63998,667.5333c8.09334,128.30666 61.06667,252.07999 120.6,253.50666c35,0.82667 72.95999,-34.21333 103.62666,-152.59999c8.88,-34.30667 18.6,-69.30667 35.04,-101.4c42.17333,-82.38666 171.14666,-229.58666 182.41332,-261.62665c20.86667,-59.25334 6.48,-115.62667 -23.16,-165.14666c-21.93333,-36.68 -52.23999,-69.61333 -82.75999,-97.18667c-136.26666,-123.14666 -326.95999,-202.62665 -578.19998,-238.41332c-36.81333,-5.24 -124.37332,-5.01333 -145.55999,28c-29.25333,45.6 49.08,55.65333 75.36,67.33333zm-64.14667,500.86664c63.62667,0 115.21333,51.58667 115.21333,115.21333c0,63.64 -51.57333,115.22666 -115.21333,115.22666c-63.63999,0 -115.22666,-51.58666 -115.22666,-115.22666c0,-63.62666 51.58667,-115.21333 115.22666,-115.21333zm-724.2533,0c63.64,0 115.22666,51.58667 115.22666,115.21333c0,63.64 -51.58666,115.22666 -115.22666,115.22666c-63.64,0 -115.22666,-51.58666 -115.22666,-115.22666c0,-63.62666 51.58666,-115.21333 115.22666,-115.21333zm403.27998,1016.93329l0,133.22666c0,22.72 -18.42666,41.14667 -41.15999,41.14667c-22.72,0 -41.14667,-18.42667 -41.14667,-41.14667l0,-133.22666c-44.93333,28.90667 -91.4,49.36 -137.85333,61.89333l0,182.57333c0,43.08 19.6,82.46666 51.16,111.21333c32.61333,29.69333 77.85333,48.11999 127.84,48.11999c49.99999,0 95.23999,-18.42666 127.83999,-48.11999c31.57333,-28.74667 51.17333,-68.13333 51.17333,-111.21333l0,-182.55999c-46.46666,-12.53334 -92.93333,-33 -137.85333,-61.90667zm-329.29331,-250.35999c13.06666,0 23.65333,10.58667 23.65333,23.65334c0,13.06666 -10.58667,23.66666 -23.65333,23.66666c-13.06667,0 -23.66667,-10.6 -23.66667,-23.66666c0,-13.06667 10.6,-23.65334 23.66667,-23.65334zm-86.45333,-39.13333c0,-13.06666 10.58666,-23.66666 23.66666,-23.66666c13.06667,0 23.65333,10.6 23.65333,23.66666c0,13.06667 -10.58666,23.65333 -23.65333,23.65333c-13.08,0 -23.66666,-10.58666 -23.66666,-23.65333zm0,125.57333c0,-13.05333 10.58666,-23.65333 23.66666,-23.65333c13.06667,0 23.65333,10.6 23.65333,23.65333c0,13.08 -10.58666,23.66667 -23.65333,23.66667c-13.08,0 -23.66666,-10.58667 -23.66666,-23.66667zm788.31996,-86.44c13.06667,0 23.65333,10.58667 23.65333,23.65334c0,13.06666 -10.58666,23.66666 -23.65333,23.66666c-13.06667,0 -23.66667,-10.6 -23.66667,-23.66666c0,-13.06667 10.6,-23.65334 23.66667,-23.65334zm-86.45333,-39.13333c0,-13.06666 10.58667,-23.66666 23.65333,-23.66666c13.06667,0 23.66667,10.6 23.66667,23.66666c0,13.06667 -10.6,23.65333 -23.66667,23.65333c-13.06666,0 -23.65333,-10.58666 -23.65333,-23.65333zm0,125.57333c0,-13.05333 10.58667,-23.65333 23.65333,-23.65333c13.06667,0 23.66667,10.6 23.66667,23.65333c0,13.08 -10.6,23.66667 -23.66667,23.66667c-13.06666,0 -23.65333,-10.58667 -23.65333,-23.66667zm-39.13333,-86.44c13.06667,0 23.65333,10.58667 23.65333,23.65334c0,13.06666 -10.58666,23.66666 -23.65333,23.66666c-13.06667,0 -23.66667,-10.6 -23.66667,-23.66666c0,-13.06667 10.6,-23.65334 23.66667,-23.65334zm-701.86664,0c13.06667,0 23.66667,10.58667 23.66667,23.65334c0,13.06666 -10.6,23.66666 -23.66667,23.66666c-13.06666,0 -23.65333,-10.6 -23.65333,-23.66666c0,-13.06667 10.58667,-23.65334 23.65333,-23.65334zm433.25332,-2.10666l0,133.70666c2.76,1.49333 5.38666,3.32 7.81333,5.48c90.50666,79.55999 191.77333,113.21333 283.98665,107.54666c40.33334,-2.46667 79,-12.50667 114.24,-29.50667c35.05333,-16.92 66.84,-40.90666 93.64,-71.35999c58.95999,-67.02667 93.53332,-165.69333 85.86666,-290.42666c-1.32,-22.64 15.94666,-42.07999 38.58666,-43.41333c22.64,-1.32 42.06667,15.94667 43.4,38.58667c9.09333,148.10666 -33.58666,267.11999 -106.13333,349.58665c-34.01333,38.66666 -74.65333,69.22666 -119.67999,90.97333c-44.85333,21.65333 -93.96,34.4 -145.10666,37.54666c-18.05333,1.10667 -36.37333,1.01334 -54.84,-0.32l0,168.53333c0,67.18666 -29.93333,128.05333 -78.17333,171.97332c-47.2,42.98667 -112.03999,69.66667 -183.13332,69.66667c-71.09333,0 -135.93333,-26.68 -183.13333,-69.66667c-48.22666,-43.91999 -78.17333,-104.78666 -78.17333,-171.97332l0,-168.53333c-18.45333,1.33334 -36.77333,1.42667 -54.84,0.32c-51.14666,-3.13333 -100.23999,-15.90666 -145.09332,-37.54666c-45.02667,-21.74667 -85.66667,-52.30667 -119.68533,-90.97333c-72.53867,-82.46666 -115.224,-201.47999 -106.132,-349.58665c1.332,-22.64 20.76667,-39.90667 43.40267,-38.58667c22.63733,1.33334 39.91066,20.77333 38.57866,43.41333c-7.656,124.73333 26.91867,223.39999 85.876,290.42666c26.8,30.45333 58.58666,54.43999 93.63999,71.35999c35.24,17 73.89333,27.04 114.24,29.50667c92.26666,5.66667 193.59999,-28.02667 284.15999,-107.69333c2.38666,-2.10667 4.94666,-3.88 7.64,-5.33333l0,-133.70666c-76,-59.10667 -130.14666,-104.26667 -159.22666,-129.08c-33.70667,-28.74666 -48.41333,-57.81333 -47.30667,-87.09333c0.90667,-23.84 9.30667,-48.22666 50.84,-69.45333c49.76,-25.45333 118.67999,-17.93333 175.21333,-19.85333l0,0.08l0.01333,-0.08c56.52,1.92 125.45333,-5.6 175.21332,19.85333c41.53334,21.22667 49.93334,45.61333 50.84,69.45333c1.10667,29.28 -13.61333,58.34667 -47.30666,87.09333c-29.08,24.81333 -83.22667,69.97333 -159.22666,129.08zm-445.81332,-1265.33328c-163.51999,72.76 -267.73198,295.26665 -312.63065,667.5333c-8.10266,128.30666 -61.064,252.07999 -120.60533,253.50666c-34.99999,0.82667 -72.96266,-34.21333 -103.61732,-152.59999c-8.88134,-34.30667 -18.60267,-69.30667 -35.03867,-101.4c-42.18266,-82.38666 -171.14799,-229.58666 -182.42533,-261.62665c-20.86533,-59.25334 -6.46933,-115.62667 23.16,-165.14666c21.93867,-36.68 52.24,-69.61333 82.75733,-97.18667c136.26933,-123.13332 326.96532,-202.62665 578.21331,-238.41332c36.8,-5.22667 124.37333,-5.01333 145.54666,28c29.25333,45.6 -49.08,55.65333 -75.36,67.33333l0,0"/>
 </g>
</svg>